<?xml version="1.0" encoding="UTF-8"?>
<svg xmlns="http://www.w3.org/2000/svg" xmlns:xlink="http://www.w3.org/1999/xlink" xmlns:svgjs="http://svgjs.com/svgjs" version="1.1" width="512" height="512" x="0" y="0" viewBox="0 0 512 512" style="enable-background:new 0 0 512 512" xml:space="preserve" class="">
  <g>
<path xmlns="http://www.w3.org/2000/svg" style="" d="M185.133,102.887C128.18,45.934,58.507,29.246,25.829,61.924S9.839,164.273,66.794,221.227  c27.961,27.961,70.777,31.975,103.03,12.087l213.406,240.433c0.686,0.809,1.406,1.6,2.17,2.363  c15.082,15.082,39.536,15.082,54.618,0c15.082-15.083,15.082-39.536,0-54.618c-0.764-0.764-1.554-1.483-2.363-2.17L197.217,205.917  C217.107,173.665,213.093,130.849,185.133,102.887z" fill="#363636" data-original="#f09ea0" class=""/>
<path xmlns="http://www.w3.org/2000/svg" style="" d="M201.653,197.693c0.105-0.223,0.217-0.444,0.32-0.668c0.143-0.302,0.273-0.612,0.414-0.916  c13.689-30.731,7.956-68.012-17.254-93.222c-1.027-1.026-2.059-2.036-3.094-3.038c7.119,12.612,11.197,27.166,11.197,42.681  c0,48.05-38.952,87.002-87.002,87.002c-15.16,0-29.403-3.895-41.814-10.714c0.783,0.804,1.573,1.608,2.373,2.408  c26.883,26.883,67.494,31.617,99.25,14.268C181.42,226.823,193.899,213.626,201.653,197.693z" fill="#5a5a5a" data-original="#ef8990" class=""/>
<path xmlns="http://www.w3.org/2000/svg" style="" d="M326.361,115.514l-23.785,23.785c-17.835,17.835-21.598,44.399-11.315,65.931L50.056,419.323  c-0.809,0.686-1.6,1.406-2.363,2.17c-15.083,15.082-15.083,39.536,0,54.618c15.083,15.082,39.536,15.082,54.618,0  c0.764-0.764,1.483-1.554,2.17-2.363L318.571,232.54c21.532,10.284,48.098,6.519,65.933-11.315l22.355-22.355L326.361,115.514z" fill="#363636" data-original="#f9de8f" class=""/>
<path xmlns="http://www.w3.org/2000/svg" d="M346.643,151.385c1.796,1.795,4.148,2.692,6.502,2.692c2.352,0,4.706-0.897,6.502-2.692l95.329-95.326  c3.591-3.592,3.591-9.412,0-13.003c-3.591-3.588-9.411-3.591-13.003,0l-95.329,95.326  C343.053,141.973,343.053,147.793,346.643,151.385z" fill="#000000" data-original="#000000" style="" class=""/>
<path xmlns="http://www.w3.org/2000/svg" d="M372.569,176.901c1.796,1.795,4.15,2.692,6.502,2.692s4.706-0.897,6.502-2.692L480.9,81.573  c3.591-3.592,3.591-9.412,0-13.003c-3.592-3.589-9.412-3.589-13.003,0l-95.328,95.328C368.98,167.49,368.98,173.31,372.569,176.901z  " fill="#000000" data-original="#000000" style="" class=""/>
<path xmlns="http://www.w3.org/2000/svg" d="M390.969,229.548L509.307,111.21c3.591-3.592,3.591-9.412,0-13.003c-3.592-3.588-9.412-3.591-13.003,0L377.968,216.545  c-14.579,14.578-36.871,18.403-55.47,9.521c-3.7-1.766-8.118-0.873-10.839,2.193l-40.209,45.303c-0.016,0.017-0.034,0.032-0.05,0.05  c-0.016,0.018-0.028,0.037-0.044,0.055L97.567,469.464c-0.044,0.05-0.088,0.101-0.131,0.152c-0.572,0.673-1.114,1.264-1.662,1.813  c-11.475,11.474-30.145,11.473-41.615,0c-5.558-5.557-8.619-12.948-8.619-20.808s3.061-15.25,8.629-20.818  c0.534-0.537,1.124-1.076,1.803-1.654c0.051-0.043,0.102-0.087,0.152-0.131l108.648-96.434c3.798-3.371,4.143-9.182,0.774-12.979  c-3.371-3.799-9.183-4.146-12.979-0.774L43.99,414.202c-1.038,0.885-1.967,1.742-2.833,2.609  c-9.031,9.031-14.005,21.038-14.005,33.81c0,12.771,4.973,24.779,14.004,33.81c9.323,9.321,21.567,13.982,33.812,13.981  c12.241,0,24.486-4.659,33.803-13.976c0.883-0.881,1.738-1.811,2.616-2.839l132.432-149.206l132.434,149.208  c0.876,1.029,1.732,1.959,2.609,2.834c9.321,9.321,21.565,13.981,33.809,13.981c12.245,0,24.49-4.661,33.812-13.982  c18.64-18.643,18.64-48.975,0.005-67.613c-0.88-0.883-1.811-1.738-2.838-2.615l-152.391-135.26l29.815-33.592  C345.231,253.911,372.565,247.949,390.969,229.548z M431.514,428.019c0.05,0.044,0.101,0.088,0.152,0.131  c0.673,0.573,1.264,1.114,1.813,1.662c11.473,11.474,11.473,30.143,0.001,41.615c-11.475,11.473-30.144,11.473-41.622-0.005  c-0.543-0.543-1.086-1.135-1.659-1.808c-0.043-0.051-0.087-0.102-0.131-0.152L256.111,318.54l22.939-25.845L431.514,428.019z" fill="#000000" data-original="#000000" style="" class=""/>
<path xmlns="http://www.w3.org/2000/svg" d="M167.823,246.77l33.337,37.559c0.226,0.254,0.461,0.492,0.707,0.715c0.19,0.266,0.393,0.526,0.614,0.775  c1.817,2.047,4.342,3.09,6.88,3.09c2.171,0,4.349-0.764,6.1-2.318l81.866-72.664c3.065-2.721,3.958-7.141,2.193-10.839  c-8.884-18.601-5.058-40.891,9.521-55.468L427.379,29.281c3.591-3.592,3.591-9.412,0-13.003c-3.592-3.589-9.412-3.589-13.003,0  L296.04,134.617c-18.406,18.404-24.366,45.736-15.807,69.897l-36.415,32.322l-34.998-31.064  c18.099-35.612,11.492-78.851-17.222-107.567c-28.518-28.518-61.55-48.587-93.011-56.508c-32.843-8.267-61.001-2.748-79.295,15.545  s-23.813,46.455-15.545,79.296c7.921,31.459,27.99,64.491,56.51,93.008C88.971,258.262,132.208,264.87,167.823,246.77z   M32.294,70.245C45.83,56.708,67.78,52.904,94.096,59.53c28.287,7.122,58.296,25.475,84.498,51.678  c24.516,24.515,28.94,62.225,10.762,91.703c-2.344,3.801-1.617,8.737,1.722,11.702l38.888,34.516l-19.836,17.607l-33.468-37.706  c-2.964-3.339-7.902-4.069-11.702-1.722c-29.478,18.177-67.188,13.754-91.704-10.763c-26.204-26.203-44.557-56.21-51.68-84.497  C14.952,105.731,18.757,83.781,32.294,70.245z" fill="#000000" data-original="#000000" style="" class=""/>















</g>
</svg>
