<svg height="512" viewBox="0 0 64 64" width="512" xmlns="http://www.w3.org/2000/svg"><path d="m58.888 42.617a11.3 11.3 0 0 1 -10.055 1.44 1 1 0 0 0 -.915.127l-4.5 3.191 1.158 1.631 4.083-2.9a13.366 13.366 0 0 0 11.345-1.833 14.191 14.191 0 0 0 1.671-1.322l-1.356-1.47a12.051 12.051 0 0 1 -1.431 1.136z"/><path d="m48.818 27.693a9.093 9.093 0 0 0 -4.141 8.672l-12.677 8.126-12.679-8.121a9.052 9.052 0 0 0 -4.145-8.67 9.561 9.561 0 0 0 -6.52-1.626 7.4 7.4 0 0 0 -6.378 9.454 9.554 9.554 0 0 0 3.951 5.432 9.05 9.05 0 0 0 9.6.593l9.841 6.987-9.365 6.005a3.919 3.919 0 0 0 -1.142 5.507 3.926 3.926 0 0 0 5.525 1l11.312-8.022 11.312 8.028a3.93 3.93 0 1 0 4.388-6.514l-9.376-6 9.848-6.99a9.05 9.05 0 0 0 9.6-.591c4.11-2.774 5.452-8.008 2.989-11.668s-7.824-4.376-11.943-1.602zm-29.288 31.732a1.974 1.974 0 0 1 -2.712-.495 1.921 1.921 0 0 1 .561-2.7l10.049-6.444 2.839 2.014zm27.94-1.963a1.93 1.93 0 0 1 -3.006 1.965l-28.039-19.9a1 1 0 0 0 -1.168.008 6.93 6.93 0 0 1 -7.91-.233 7.562 7.562 0 0 1 -3.136-4.29 5.4 5.4 0 0 1 4.7-6.959 7.563 7.563 0 0 1 5.152 1.3 6.93 6.93 0 0 1 3.174 7.247 1 1 0 0 0 .43 1.087l28.954 18.542a1.912 1.912 0 0 1 .849 1.233zm9.18-18.162a6.931 6.931 0 0 1 -7.911.231 1 1 0 0 0 -1.168-.008l-11.063 7.854-2.652-1.7 12.474-8a1 1 0 0 0 .43-1.085 6.965 6.965 0 0 1 3.178-7.247c3.2-2.157 7.314-1.681 9.163 1.058s.748 6.74-2.451 8.897z"/><path d="m12.927 3.833-1.107-1.666a13 13 0 0 0 -5.077 15.167l1.885-.668a11 11 0 0 1 4.3-12.833z"/><path d="m10.75 20.268a11.125 11.125 0 0 1 -1.274-1.768l-1.731 1a13.115 13.115 0 0 0 1.505 2.09z"/><path d="m42.98 36.2 2.847-14.234a9 9 0 0 0 -.827-17.966 8.888 8.888 0 0 0 -5.568 1.935 8.986 8.986 0 0 0 -14.864 0 8.888 8.888 0 0 0 -5.568-1.935 9 9 0 0 0 -.827 17.962l2.847 14.238 1.96-.392-.56-2.808h19.16l-.56 2.8zm-4.827-5.2.837-5.858-1.98-.284-.877 6.142h-3.133v-11h-2v11h-3.133l-.877-6.142-1.98.284.837 5.858h-3.827l-2.04-10.2a1 1 0 0 0 -.98-.8 7 7 0 0 1 0-14 6.931 6.931 0 0 1 5.083 2.2 1 1 0 0 0 1.626-.25 6.986 6.986 0 0 1 12.582 0 1 1 0 0 0 1.626.25 6.931 6.931 0 0 1 5.083-2.2 7 7 0 0 1 0 14 1 1 0 0 0 -.98.8l-2.04 10.2z"/></svg>