<svg id="Capa_1" enable-background="new 0 0 512 512" height="512" viewBox="0 0 512 512" width="512" xmlns="http://www.w3.org/2000/svg"><g><g><path d="m351 150h-190v-26.15c-18.116-9.229-30-27.938-30-48.85 0-30.327 24.673-55 55-55 6.895 0 13.604 1.294 19.912 3.804 12.187-14.809 30.544-23.804 50.088-23.804s37.901 8.995 50.088 23.804c6.308-2.51 13.017-3.804 19.912-3.804 30.327 0 55 24.673 55 55 0 20.911-11.884 39.621-30 48.85z"/></g><g><path d="m211 331.616v13.384c0 24.853 20.147 45 45 45 24.853 0 45-20.147 45-45v-13.384c-13.97 5.409-29.143 8.384-45 8.384s-31.03-2.975-45-8.384z"/></g><path d="m161 180v35c0 52.383 42.617 95 95 95s95-42.617 95-95v-35z"/><path d="m256 420c-41.355 0-75-33.645-75-75v-5h-5c-63.513 0-115 51.487-115 115v42c0 8.284 6.716 15 15 15h55v-37c0-8.284 6.716-15 15-15s15 6.716 15 15v37h110v-93.509c-4.848.988-9.864 1.509-15 1.509zm-20 60c-8.284 0-15-6.716-15-15s6.716-15 15-15 15 6.716 15 15-6.716 15-15 15z"/><path d="m336 340h-5v5c0 24.484-11.796 46.262-30 59.959v107.041h50v-37c0-8.284 6.716-15 15-15s15 6.716 15 15v37h55c8.284 0 15-6.716 15-15v-42c0-63.513-51.487-115-115-115z"/></g></svg>