<svg id="Capa_1" enable-background="new 0 0 512 512" height="512" viewBox="0 0 512 512" width="512" xmlns="http://www.w3.org/2000/svg"><g><circle cx="236" cy="435" r="15"/><path d="m336 310h-20v-21.403c21.346-17.435 35-43.95 35-73.597v-91.15c18.116-9.229 30-27.939 30-48.85 0-30.327-24.673-55-55-55-6.895 0-13.604 1.294-19.912 3.804-12.187-14.809-30.544-23.804-50.088-23.804s-37.901 8.995-50.088 23.804c-6.308-2.51-13.017-3.804-19.912-3.804-30.327 0-55 24.673-55 55 0 20.912 11.884 39.621 30 48.85v91.15c0 29.647 13.654 56.162 35 73.597v21.403h-20c-63.411 0-115 51.589-115 115v72c0 8.284 6.716 15 15 15h360c8.284 0 15-6.716 15-15v-72c0-63.411-51.589-115-115-115zm-150-260c7.007 0 12.281 3.039 15.472 5.588 3.589 2.867 8.293 3.931 12.769 2.89 4.474-1.043 8.224-4.079 10.174-8.238 5.767-12.296 18.165-20.24 31.585-20.24s25.817 7.944 31.584 20.239c1.951 4.16 5.701 7.195 10.175 8.239 4.475 1.043 9.18-.022 12.769-2.89 3.191-2.549 8.465-5.588 15.472-5.588 13.785 0 25 11.215 25 25 0 11.308-7.715 21.204-18.762 24.065-6.617 1.714-11.238 7.685-11.238 14.521v26.414h-130v-26.414c0-6.835-4.622-12.807-11.239-14.521-11.046-2.861-18.761-12.757-18.761-24.065 0-13.785 11.215-25 25-25zm5 120h130v45c0 35.841-29.159 65-65 65s-65-29.159-65-65zm65 140c10.479 0 20.566-1.71 30-4.858v24.858c0 16.542-13.458 30-30 30s-30-13.458-30-30v-24.858c9.434 3.148 19.521 4.858 30 4.858zm-165 115c0-46.869 38.131-85 85-85h20.849c4.777 28.339 29.475 50 59.151 50 5.178 0 10.204-.66 15-1.899v93.899h-110v-37c0-8.284-6.716-15-15-15s-15 6.716-15 15v37h-40zm330 57h-40v-37c0-8.284-6.716-15-15-15s-15 6.716-15 15v37h-50v-112.377c7.231-8.203 12.256-18.385 14.151-29.623h20.849c46.869 0 85 38.131 85 85z"/></g></svg>