<?xml version="1.0" encoding="iso-8859-1"?>
<!-- Generator: Adobe Illustrator 19.0.0, SVG Export Plug-In . SVG Version: 6.00 Build 0)  -->
<svg version="1.1" id="Layer_1" xmlns="http://www.w3.org/2000/svg" xmlns:xlink="http://www.w3.org/1999/xlink" x="0px" y="0px"
	 viewBox="0 0 512 512" style="enable-background:new 0 0 512 512;" xml:space="preserve">
<g>
	<g>
		<path d="M392,77c-11.251,0-22.236,1.522-32.838,4.54c-4.635-19.672-14.835-37.656-29.702-51.953C309.621,10.507,283.532,0,256,0
			s-53.621,10.507-73.46,29.587c-14.867,14.297-25.067,32.281-29.702,51.953C142.236,78.522,131.251,77,120,77
			C53.832,77,0,130.832,0,197c0,61.088,45.887,111.661,105,119.067V512h302V316.067c59.113-7.406,105-57.979,105-119.067
			C512,130.832,458.168,77,392,77z M392,287h-15v195H135V287h-15c-49.626,0-90-40.374-90-90c0-49.626,40.374-90,90-90
			c13.523,0,26.523,2.925,38.638,8.694l20.492,9.758l0.944-22.677C181.772,61.966,215.123,30,256,30s74.228,31.966,75.926,72.775
			l0.944,22.677l20.492-9.758C365.477,109.925,378.477,107,392,107c49.626,0,90,40.374,90,90C482,246.626,441.626,287,392,287z"/>
	</g>
</g>
<g>
	<g>
		<rect x="241" y="287" width="30" height="150"/>
	</g>
</g>
<g>
	<g>
		<rect x="173" y="287" width="30" height="150"/>
	</g>
</g>
<g>
	<g>
		<rect x="309" y="287" width="30" height="150"/>
	</g>
</g>
<g>
</g>
<g>
</g>
<g>
</g>
<g>
</g>
<g>
</g>
<g>
</g>
<g>
</g>
<g>
</g>
<g>
</g>
<g>
</g>
<g>
</g>
<g>
</g>
<g>
</g>
<g>
</g>
<g>
</g>
</svg>
