<?xml version="1.0" encoding="iso-8859-1"?>
<!-- Generator: Adobe Illustrator 19.0.0, SVG Export Plug-In . SVG Version: 6.00 Build 0)  -->
<svg version="1.1" id="Layer_1" xmlns="http://www.w3.org/2000/svg" xmlns:xlink="http://www.w3.org/1999/xlink" x="0px" y="0px"
	 viewBox="0 0 512 512" style="enable-background:new 0 0 512 512;" xml:space="preserve">
<g>
	<g>
		<path d="M392,77c-11.251,0-22.236,1.522-32.838,4.54c-4.635-19.672-14.835-37.656-29.702-51.953C309.621,10.507,283.532,0,256,0
			c-27.532,0-53.621,10.507-73.46,29.587c-14.867,14.297-25.067,32.281-29.702,51.953C142.236,78.522,131.251,77,120,77
			C53.832,77,0,130.832,0,197c0,61.088,45.887,111.661,105,119.067V512h302V316.067c59.113-7.406,105-57.979,105-119.067
			C512,130.832,458.168,77,392,77z M193,466h-30V316h30V466z M271,466h-30V316h30V466z M349,466h-30V316h30V466z"/>
	</g>
</g>
<g>
</g>
<g>
</g>
<g>
</g>
<g>
</g>
<g>
</g>
<g>
</g>
<g>
</g>
<g>
</g>
<g>
</g>
<g>
</g>
<g>
</g>
<g>
</g>
<g>
</g>
<g>
</g>
<g>
</g>
</svg>
