<?xml version="1.0" encoding="utf-8"?>
<svg id="flame" enable-background="new 0 0 300 300" height="512" viewBox="0 0 300 300" width="512" xmlns="http://www.w3.org/2000/svg">
  <g transform="matrix(-1, 0, 0, 1, 299.999847, 0)">
    <circle cx="196.002" cy="61.999" r="4"/>
    <circle cx="224.002" cy="57.999" r="4"/>
    <circle cx="228.002" cy="105.999" r="4"/>
    <circle cx="204.002" cy="41.999" r="4"/>
    <path d="m231.109 151.407c-.971-1.984-3.365-2.809-5.35-1.838s-2.809 3.365-1.838 5.35c5.963 12.201 8.713 25.904 7.953 39.633-2.219 40.129-35.4 73.219-75.539 75.334-22.221 1.164-43.309-6.588-59.387-21.842-16.088-15.262-24.947-35.877-24.947-58.045 0-19.195 6.695-37.26 18.768-51.533-3.906 16.75-2.826 34.76-2.76 35.789.072 1.129.619 2.174 1.506 2.877.885.703 2.021 1 3.145.812 1.115-.186 27.342-5.051 27.342-47.945 0-16.182 1.344-30.432 2.92-41.574 1.041 1.416 2.469 2.525 4.129 3.166 2.402.928 5.105.799 7.418-.352 3.451-1.727 5.463-5.504 5.004-9.4-3.652-30.965 7.578-43.838 15.154-48.91-.664 12.025 5.58 25.492 17.902 47.055 7.818 13.684 12.748 32.584 15.693 43.877 2.719 10.43 3.416 13.229 7.545 12.709 4.234-.543 4.234-4.363 4.234-14.57 0-11.998 1.758-20.35 3.814-26.02 1.178 14.477 6.047 28.898 10.547 39.574.859 2.035 3.211 2.998 5.238 2.133 2.037-.857 2.992-3.203 2.133-5.238-5.631-13.365-11.896-32.879-9.764-49.953.195-1.553-.535-3.076-1.865-3.898-1.334-.822-3.023-.799-4.322.074-1.217.811-10.576 7.764-13.137 30.92-3.068-10.68-7.322-23.342-13.172-33.576-15.643-27.375-19.158-38.309-15.678-48.75.459-1.379.135-2.896-.846-3.969-.982-1.068-2.463-1.523-3.879-1.188-.361.086-8.916 2.211-16.521 11.031-6.773 7.855-14.184 22.844-11.023 49.635.066.568-.184 1.082-.635 1.309-.387.191-.73.135-.957.047-.195-.076-.553-.273-.736-.748-1.779-4.602-3.451-11.879-1.316-20.412.529-2.119-.736-4.27-2.846-4.834-2.111-.564-4.283.668-4.881 2.764-.334 1.166-8.154 29-8.154 69.1 0 25.488-10.07 34.912-16.158 38.279-.062-9.889.793-30.822 8.453-42.807.898-1.404.826-3.229-.176-4.562-.641-.854-1.596-1.418-2.654-1.562-1.049-.148-2.131.141-2.979.789-21.916 16.811-34.486 42.275-34.486 69.863 0 24.385 9.746 47.061 27.441 63.85 16.523 15.676 37.85 24.154 60.506 24.152 1.596 0 3.201-.043 4.809-.127 44.158-2.326 80.662-38.732 83.105-82.881.835-15.092-2.192-30.162-8.753-43.588z"/>
    <path d="m125.047 171.553c-1.432-1.312-3.602-1.408-5.141-.227-13.141 10.082-20.678 25.354-20.678 41.898 0 14.623 5.846 28.223 16.457 38.291 9.908 9.398 22.697 14.482 36.279 14.482.959 0 1.922-.025 2.887-.076 26.482-1.395 48.375-23.227 49.842-49.705.5-9.049-1.316-18.088-5.252-26.139-.969-1.984-3.361-2.809-5.35-1.838-1.986.971-2.809 3.365-1.838 5.35 3.336 6.828 4.877 14.498 4.451 22.186-1.242 22.457-19.812 40.975-42.275 42.158-12.414.65-24.238-3.684-33.238-12.223-9.004-8.543-13.963-20.08-13.963-32.486 0-8.307 2.238-16.234 6.379-23.094-.84 7.357-.465 13.596-.436 14.061.072 1.127.621 2.174 1.506 2.875.885.703 2.023.996 3.145.812.705-.117 17.277-3.182 17.277-29.494 0-13.303 9.238-31.996 16.447-44.557.525 7.477 2.082 16.182 4.602 25.242.83 2.98 8.453 29.135 18.92 27.639 6.482-.885 6.482-9.98 6.482-12.969 0-2.252.109-4.268.295-6.07 1.258 5.412 3.084 10.475 4.82 14.592.857 2.037 3.209 2.996 5.238 2.133 2.037-.857 2.992-3.203 2.133-5.238-3.189-7.572-6.742-18.6-5.551-28.146.195-1.553-.535-3.076-1.867-3.898-1.33-.822-3.021-.791-4.32.074-.896.598-8.748 6.416-8.748 26.555 0 1.764-.115 3.016-.256 3.885-2.389-2.709-6.377-9.688-9.439-20.699-5.018-18.041-5.33-31.916-3.414-37.662.631-1.891-.229-3.957-2.012-4.846-1.787-.893-3.949-.328-5.08 1.314-1.07 1.559-26.25 38.463-26.25 62.652 0 10.645-3.137 16.102-5.998 18.865.223-6.518 1.285-15.391 4.611-20.598 1.045-1.636.764-3.786-.665-5.099z"/>
    <path d="m214.213 221.577c.574.287 1.186.422 1.785.422 1.469 0 2.881-.809 3.582-2.211 12.596-25.193 4.564-50.01 4.217-51.055-.699-2.094-2.961-3.236-5.061-2.529-2.096.699-3.229 2.965-2.529 5.061.074.223 7.348 22.686-3.783 44.945-.989 1.976-.188 4.379 1.789 5.367z"/>
  </g>
</svg>