<?xml version="1.0"?>
<svg xmlns="http://www.w3.org/2000/svg" viewBox="0 0 512 512" width="512" height="512"><g id="outline"><path d="M407.663,301.7q-.1-.341-.235-.672l-16-40A8,8,0,0,0,377.753,259L361.211,279.68a14.148,14.148,0,0,1-21.052,1.166,14.214,14.214,0,0,1-.737-19.212,70.809,70.809,0,0,0,.636-91.661l-5.912-7.1a8,8,0,0,0-13.907,3.182l-2.179,8.716A22.707,22.707,0,0,1,304,190.554V178.409a114.732,114.732,0,0,0-21.49-67.059A98.814,98.814,0,0,1,264,53.591V24a8,8,0,0,0-12.438-6.656l-34.2,22.8a61.74,61.74,0,0,0-22.223,76.623,45.623,45.623,0,0,1-6.554,47.857l-64.764,78.4A154.55,154.55,0,0,0,242.975,496H259.3A153.535,153.535,0,0,0,368.58,450.733l2.018-2.017A147.649,147.649,0,0,0,407.663,301.7ZM359.284,437.4l-2.017,2.018A137.647,137.647,0,0,1,259.3,480H242.975A138.55,138.55,0,0,1,136.158,253.211l64.764-78.4a61.529,61.529,0,0,0,8.84-64.545,45.78,45.78,0,0,1,16.477-56.813L248,38.948V53.591a114.732,114.732,0,0,0,21.49,67.059A98.814,98.814,0,0,1,288,178.409V200a8,8,0,0,0,8,8,38.68,38.68,0,0,0,35.378-22.942,54.832,54.832,0,0,1-4.1,66.164,30.148,30.148,0,1,0,46.432,38.453l7.966-9.957,10.767,26.918A131.672,131.672,0,0,1,359.284,437.4Z"/><path d="M342.179,328.256a7.993,7.993,0,0,0-7.663,2.087l-23.274,23.275a15.654,15.654,0,0,1-23.1-21.091,70.507,70.507,0,0,0,8.9-76.67l-37.717-75.435a8,8,0,0,0-15.123,2.854l-5.8,63.8A49.289,49.289,0,0,1,220.2,280.935l-32.973,26.378a82.334,82.334,0,0,0-31.052,64.607V381a82.738,82.738,0,0,0,82.74,82.737q.406,0,.815,0l23.118-.228a82.238,82.238,0,0,0,57.9-24.447l.078-.078A107.533,107.533,0,0,0,347.865,333.8,8,8,0,0,0,342.179,328.256Zm-32.688,99.427-.071.071-.022.022A66.34,66.34,0,0,1,262.687,447.5l-23.118.228A66.739,66.739,0,0,1,172.172,381V371.92a66.411,66.411,0,0,1,25.047-52.112l32.973-26.379a65.371,65.371,0,0,0,24.148-44.908l3.254-35.79,25.141,50.282a54.508,54.508,0,0,1-6.88,59.271,31.654,31.654,0,0,0,46.7,42.647l12.759-12.759A91.509,91.509,0,0,1,309.491,427.683Z"/><path d="M112,168v16a8,8,0,0,0,16,0V168a8,8,0,0,0-16,0Z"/><path d="M144,152a8,8,0,0,0,8-8V128a8,8,0,0,0-16,0v16A8,8,0,0,0,144,152Z"/><path d="M112,120a8,8,0,0,0,8-8V96a8,8,0,0,0-16,0v16A8,8,0,0,0,112,120Z"/><path d="M392,216a8,8,0,0,0,8-8V192a8,8,0,0,0-16,0v16A8,8,0,0,0,392,216Z"/><path d="M368,160a8,8,0,0,0,8-8V136a8,8,0,0,0-16,0v16A8,8,0,0,0,368,160Z"/><path d="M400,136a8,8,0,0,0,8-8V104a8,8,0,0,0-16,0v24A8,8,0,0,0,400,136Z"/></g></svg>
